<?xml version="1.0" encoding="iso-8859-1"?>
<svg xmlns="http://www.w3.org/2000/svg" xmlns:xlink="http://www.w3.org/1999/xlink" width="0" height="0" class="hidden">
  <symbol aria-label="Emoji" role="img" id="emoji" viewBox="0 0 24 24">
    <title>Emoji</title>
    <path d="M15.83 10.997a1.167 1.167 0 1 0 1.167 1.167 1.167 1.167 0 0 0-1.167-1.167Zm-6.5 1.167a1.167 1.167 0 1 0-1.166 1.167 1.167 1.167 0 0 0 1.166-1.167Zm5.163 3.24a3.406 3.406 0 0 1-4.982.007 1 1 0 1 0-1.557 1.256 5.397 5.397 0 0 0 8.09 0 1 1 0 0 0-1.55-1.263ZM12 .503a11.5 11.5 0 1 0 11.5 11.5A11.513 11.513 0 0 0 12 .503Zm0 21a9.5 9.5 0 1 1 9.5-9.5 9.51 9.51 0 0 1-9.5 9.5Z"></path>
  </symbol>
  <symbol aria-label="Delete" role="img" id="delete" viewBox="0 0 24 24">
    <line fill="none" stroke="currentColor" stroke-linecap="round" stroke-linejoin="round" stroke-width="2" x1="21" x2="3" y1="3" y2="21"></line>
    <line fill="none" stroke="currentColor" stroke-linecap="round" stroke-linejoin="round" stroke-width="2" x1="21" x2="3" y1="21" y2="3"></line>
  </symbol>
  <symbol aria-label="Comment" role="img" id="comment" viewBox="0 0 24 24">
    <path d="M20.656 17.008a9.993 9.993 0 1 0-3.59 3.615L22 22Z" fill="none" stroke-linejoin="round" stroke-width="2"></path>
  </symbol>
  <symbol aria-label="More Options" role="img" id="more-options" viewBox="0 0 24 24">
    <title>More Options</title>
    <circle cx="12" cy="12" r="1.5"></circle>
    <circle cx="6" cy="12" r="1.5"></circle>
    <circle cx="18" cy="12" r="1.5"></circle>
  </symbol>
  <symbol aria-label="Heart" role="img" id="heart" viewBox="0 0 24 24">
    <path stroke="none" d="M16.792 3.904A4.989 4.989 0 0 1 21.5 9.122c0 3.072-2.652 4.959-5.197 7.222-2.512 2.243-3.865 3.469-4.303 3.752-.477-.309-2.143-1.823-4.303-3.752C5.141 14.072 2.5 12.167 2.5 9.122a4.989 4.989 0 0 1 4.708-5.218 4.21 4.21 0 0 1 3.675 1.941c.84 1.175.98 1.763 1.12 1.763s.278-.588 1.11-1.766a4.17 4.17 0 0 1 3.679-1.938m0-2a6.04 6.04 0 0 0-4.797 2.127 6.052 6.052 0 0 0-4.787-2.127A6.985 6.985 0 0 0 .5 9.122c0 3.61 2.55 5.827 5.015 7.97.283.246.569.494.853.747l1.027.918a44.998 44.998 0 0 0 3.518 3.018 2 2 0 0 0 2.174 0 45.263 45.263 0 0 0 3.626-3.115l.922-.824c.293-.26.59-.519.885-.774 2.334-2.025 4.98-4.32 4.98-7.94a6.985 6.985 0 0 0-6.708-7.218Z"></path>
  </symbol>
  <symbol aria-label="Heart bold" role="img" id="heart-bold" viewBox="0 0 48 48">
    <path d="M34.6 3.1c-4.5 0-7.9 1.8-10.6 5.6-2.7-3.7-6.1-5.5-10.6-5.5C6 3.1 0 9.6 0 17.6c0 7.3 5.4 12 10.6 16.5.6.5 1.3 1.1 1.9 1.7l2.3 2c4.4 3.9 6.6 5.9 7.6 6.5.5.3 1.1.5 1.6.5s1.1-.2 1.6-.5c1-.6 2.8-2.2 7.8-6.8l2-1.8c.7-.6 1.3-1.2 2-1.7C42.7 29.6 48 25 48 17.6c0-8-6-14.5-13.4-14.5z"></path>
  </symbol>
  <symbol aria-label="Save" role="img" id="save" viewBox="0 0 24 24">
    <title>Save</title>
    <polygon fill="none" points="20 21 12 13.44 4 21 4 3 20 3 20 21" stroke-linecap="round" stroke-linejoin="round" stroke-width="2"></polygon>
  </symbol>
  <symbol aria-label="Share Post" role="img" id="share" viewBox="0 0 24 24">
    <title>Share Post</title>
    <line stroke-linejoin="round" stroke-width="2" x1="22" x2="9.218" y1="3" y2="10.083"></line>
    <polygon fill="none" points="11.698 20.334 22 3.001 2 3.001 9.218 10.084 11.698 20.334" stroke-linejoin="round" stroke-width="2"></polygon>
  </symbol>
  <symbol aria-label="New Post" role="img" id="new-post" viewBox="0 0 24 24">
    <path d="M2 12v3.45c0 2.849.698 4.005 1.606 4.944.94.909 2.098 1.608 4.946 1.608h6.896c2.848 0 4.006-.7 4.946-1.608C21.302 19.455 22 18.3 22 15.45V8.552c0-2.849-.698-4.006-1.606-4.945C19.454 2.7 18.296 2 15.448 2H8.552c-2.848 0-4.006.699-4.946 1.607C2.698 4.547 2 5.703 2 8.552Z" fill="none" stroke="currentColor" stroke-linecap="round" stroke-linejoin="round" stroke-width="2"></path>
    <line fill="none" stroke="currentColor" stroke-linecap="round" stroke-linejoin="round" stroke-width="2" x1="6.545" x2="17.455" y1="12.001" y2="12.001"></line>
    <line fill="none" stroke="currentColor" stroke-linecap="round" stroke-linejoin="round" stroke-width="2" x1="12.003" x2="12.003" y1="6.545" y2="17.455"></line>
  </symbol>
  <symbol aria-label="New Post Selected" role="img" id="new-post-selected" viewBox="0 0 24 24">
    <path d="m12.003 5.545-.117.006-.112.02a1 1 0 0 0-.764.857l-.007.117V11H6.544l-.116.007a1 1 0 0 0-.877.876L5.545 12l.007.117a1 1 0 0 0 .877.876l.116.007h4.457l.001 4.454.007.116a1 1 0 0 0 .876.877l.117.007.117-.007a1 1 0 0 0 .876-.877l.007-.116V13h4.452l.116-.007a1 1 0 0 0 .877-.876l.007-.117-.007-.117a1 1 0 0 0-.877-.876L17.455 11h-4.453l.001-4.455-.007-.117a1 1 0 0 0-.876-.877ZM8.552.999h6.896c2.754 0 4.285.579 5.664 1.912 1.255 1.297 1.838 2.758 1.885 5.302L23 8.55v6.898c0 2.755-.578 4.286-1.912 5.664-1.298 1.255-2.759 1.838-5.302 1.885l-.338.003H8.552c-2.754 0-4.285-.579-5.664-1.912-1.255-1.297-1.839-2.758-1.885-5.302L1 15.45V8.551c0-2.754.579-4.286 1.912-5.664C4.21 1.633 5.67 1.05 8.214 1.002L8.552 1Z"></path>
  </symbol>
  <symbol aria-label="Home" role="img" id="home" viewBox="0 0 24 24">
    <path d="M9.005 16.545a2.997 2.997 0 0 1 2.997-2.997A2.997 2.997 0 0 1 15 16.545V22h7V11.543L12 2 2 11.543V22h7.005Z" fill="none" stroke="currentColor" stroke-linejoin="round" stroke-width="2"></path>
  </symbol>
  <symbol aria-label="Home Selected" role="img" id="home-selected" viewBox="0 0 24 24">
    <path d="M22 23h-6.001a1 1 0 0 1-1-1v-5.455a2.997 2.997 0 1 0-5.993 0V22a1 1 0 0 1-1 1H2a1 1 0 0 1-1-1V11.543a1.002 1.002 0 0 1 .31-.724l10-9.543a1.001 1.001 0 0 1 1.38 0l10 9.543a1.002 1.002 0 0 1 .31.724V22a1 1 0 0 1-1 1Z"></path>
  </symbol>
  <symbol aria-label="Explore" role="img" id="explore" viewBox="0 0 24 24">
    <polygon fill="none" points="13.941 13.953 7.581 16.424 10.06 10.056 16.42 7.585 13.941 13.953" stroke="currentColor" stroke-linecap="round" stroke-linejoin="round" stroke-width="2"></polygon>
    <polygon fill-rule="evenodd" points="10.06 10.056 13.949 13.945 7.581 16.424 10.06 10.056"></polygon>
    <circle cx="12.001" cy="12.005" fill="none" r="10.5" stroke="currentColor" stroke-linecap="round" stroke-linejoin="round" stroke-width="2"></circle>
  </symbol>
  <symbol aria-label="Explore Selected" role="img" id="explore-selected" viewBox="0 0 24 24">
    <path d="m13.173 13.164 1.491-3.829-3.83 1.49ZM12.001.5a11.5 11.5 0 1 0 11.5 11.5A11.513 11.513 0 0 0 12.001.5Zm5.35 7.443-2.478 6.369a1 1 0 0 1-.57.569l-6.36 2.47a1 1 0 0 1-1.294-1.294l2.48-6.369a1 1 0 0 1 .57-.569l6.359-2.47a1 1 0 0 1 1.294 1.294Z"></path>
  </symbol>
  <symbol aria-label="Close" role="img" viewBox="0 0 24 24" id="close">
    <title>Close</title>
    <polyline fill="none" points="20.643 3.357 12 12 3.353 20.647" stroke-linecap="round" stroke-linejoin="round" stroke-width="3"></polyline>
    <line fill="none" stroke-linecap="round" stroke-linejoin="round" stroke-width="3" x1="20.649" x2="3.354" y1="20.649" y2="3.354"></line>
  </symbol>
  <symbol aria-label="Icon to represent images" role="img" id="icon-to-represent-images" viewBox="0 0 97.6 77.3">
    <title>Icon to represent images</title>
    <path d="M16.3 24h.3c2.8-.2 4.9-2.6 4.8-5.4-.2-2.8-2.6-4.9-5.4-4.8s-4.9 2.6-4.8 5.4c.1 2.7 2.4 4.8 5.1 4.8zm-2.4-7.2c.5-.6 1.3-1 2.1-1h.2c1.7 0 3.1 1.4 3.1 3.1 0 1.7-1.4 3.1-3.1 3.1-1.7 0-3.1-1.4-3.1-3.1 0-.8.3-1.5.8-2.1z" fill="currentColor"></path>
    <path d="M84.7 18.4 58 16.9l-.2-3c-.3-5.7-5.2-10.1-11-9.8L12.9 6c-5.7.3-10.1 5.3-9.8 11L5 51v.8c.7 5.2 5.1 9.1 10.3 9.1h.6l21.7-1.2v.6c-.3 5.7 4 10.7 9.8 11l34 2h.6c5.5 0 10.1-4.3 10.4-9.8l2-34c.4-5.8-4-10.7-9.7-11.1zM7.2 10.8C8.7 9.1 10.8 8.1 13 8l34-1.9c4.6-.3 8.6 3.3 8.9 7.9l.2 2.8-5.3-.3c-5.7-.3-10.7 4-11 9.8l-.6 9.5-9.5 10.7c-.2.3-.6.4-1 .5-.4 0-.7-.1-1-.4l-7.8-7c-1.4-1.3-3.5-1.1-4.8.3L7 49 5.2 17c-.2-2.3.6-4.5 2-6.2zm8.7 48c-4.3.2-8.1-2.8-8.8-7.1l9.4-10.5c.2-.3.6-.4 1-.5.4 0 .7.1 1 .4l7.8 7c.7.6 1.6.9 2.5.9.9 0 1.7-.5 2.3-1.1l7.8-8.8-1.1 18.6-21.9 1.1zm76.5-29.5-2 34c-.3 4.6-4.3 8.2-8.9 7.9l-34-2c-4.6-.3-8.2-4.3-7.9-8.9l2-34c.3-4.4 3.9-7.9 8.4-7.9h.5l34 2c4.7.3 8.2 4.3 7.9 8.9z" fill="currentColor"></path>
    <path d="M78.2 41.6 61.3 30.5c-2.1-1.4-4.9-.8-6.2 1.3-.4.7-.7 1.4-.7 2.2l-1.2 20.1c-.1 2.5 1.7 4.6 4.2 4.8h.3c.7 0 1.4-.2 2-.5l18-9c2.2-1.1 3.1-3.8 2-6-.4-.7-.9-1.3-1.5-1.8zm-1.4 6-18 9c-.4.2-.8.3-1.3.3-.4 0-.9-.2-1.2-.4-.7-.5-1.2-1.3-1.1-2.2l1.2-20.1c.1-.9.6-1.7 1.4-2.1.8-.4 1.7-.3 2.5.1L77 43.3c1.2.8 1.5 2.3.7 3.4-.2.4-.5.7-.9.9z" fill="currentColor"></path>
  </symbol>
   <symbol aria-label="Add location" role="img" id="location" viewBox="0 0 24 24">
    <title>Add location</title>
    <path d="M12.053 8.105a1.604 1.604 0 1 0 1.604 1.604 1.604 1.604 0 0 0-1.604-1.604Zm0-7.105a8.684 8.684 0 0 0-8.708 8.66c0 5.699 6.14 11.495 8.108 13.123a.939.939 0 0 0 1.2 0c1.969-1.628 8.109-7.424 8.109-13.123A8.684 8.684 0 0 0 12.053 1Zm0 19.662C9.29 18.198 5.345 13.645 5.345 9.66a6.709 6.709 0 0 1 13.417 0c0 3.985-3.944 8.538-6.709 11.002Z"></path>
  </symbol>
  <symbol aria-label="Theme icon" role="img" id="dark-mode" viewBox="0 0 24 24">
    <path d="M11.502,22.99805A11.4313,11.4313,0,0,1,.49512,14.83691a.99889.99889,0,0,1,.251-.998,1.01148,1.01148,0,0,1,.99707-.249,9.43041,9.43041,0,0,0,2.75879.40821A9.5082,9.5082,0,0,0,13.5957,1.74023a1.00039,1.00039,0,0,1,1.24707-1.248A11.501,11.501,0,0,1,11.502,22.99805ZM3.08984,15.91211A9.49991,9.49991,0,0,0,21.002,11.498,9.57875,9.57875,0,0,0,15.916,3.08594,11.5083,11.5083,0,0,1,3.08984,15.91211Z"></path>
  </symbol>
  <symbol aria-label="Theme icon" role="img" id="light-mode" viewBox="0 0 24 24">
    <path d="M12.00018,4.5a1,1,0,0,0,1-1V2a1,1,0,0,0-2,0V3.5A1.00005,1.00005,0,0,0,12.00018,4.5ZM5.28241,6.69678A.99989.99989,0,1,0,6.69647,5.28271l-1.06054-1.061A.99989.99989,0,0,0,4.22186,5.63574ZM4.50018,12a1,1,0,0,0-1-1h-1.5a1,1,0,0,0,0,2h1.5A1,1,0,0,0,4.50018,12Zm.78223,5.30322-1.06055,1.061a.99989.99989,0,1,0,1.41407,1.41406l1.06054-1.061a.99989.99989,0,0,0-1.41406-1.41407ZM12.00018,19.5a1.00005,1.00005,0,0,0-1,1V22a1,1,0,0,0,2,0V20.5A1,1,0,0,0,12.00018,19.5Zm6.71729-2.19678a.99989.99989,0,0,0-1.41406,1.41407l1.06054,1.061A.99989.99989,0,0,0,19.778,18.36426ZM22.00018,11h-1.5a1,1,0,0,0,0,2h1.5a1,1,0,0,0,0-2ZM18.01044,6.98975a.996.996,0,0,0,.707-.293l1.06055-1.061A.99989.99989,0,0,0,18.364,4.22168l-1.06054,1.061a1,1,0,0,0,.707,1.707ZM12.00018,6a6,6,0,1,0,6,6A6.00657,6.00657,0,0,0,12.00018,6Zm0,10a4,4,0,1,1,4-4A4.00458,4.00458,0,0,1,12.00018,16Z"></path>
  </symbol>
  <symbol aria-label="No posts" role="img" id="no-posts" viewBox="0 0 420.8 420.8">
    <path d="M406.8 96.4c-8.4-8.8-20-14-33.2-14h-66.4v-.8c0-10-4-19.6-10.8-26-6.8-6.8-16-10.8-26-10.8h-120c-10.4 0-19.6 4-26.4 10.8-6.8 6.8-10.8 16-10.8 26v.8h-66c-13.2 0-24.8 5.2-33.2 14-8.4 8.4-14 20.4-14 33.2v199.2C0 342 5.2 353.6 14 362c8.4 8.4 20.4 14 33.2 14h326.4c13.2 0 24.8-5.2 33.2-14 8.4-8.4 14-20.4 14-33.2V129.6c0-13.2-5.2-24.8-14-33.2zM400 328.8h-.4c0 7.2-2.8 13.6-7.6 18.4s-11.2 7.6-18.4 7.6H47.2c-7.2 0-13.6-2.8-18.4-7.6-4.8-4.8-7.6-11.2-7.6-18.4V129.6c0-7.2 2.8-13.6 7.6-18.4s11.2-7.6 18.4-7.6h77.2c6 0 10.8-4.8 10.8-10.8V81.2c0-4.4 1.6-8.4 4.4-11.2s6.8-4.4 11.2-4.4h119.6c4.4 0 8.4 1.6 11.2 4.4 2.8 2.8 4.4 6.8 4.4 11.2v11.6c0 6 4.8 10.8 10.8 10.8H374c7.2 0 13.6 2.8 18.4 7.6s7.6 11.2 7.6 18.4v199.2z"></path>
    <path d="M210.4 130.8c-27.2 0-52 11.2-69.6 28.8-18 18-28.8 42.4-28.8 69.6s11.2 52 28.8 69.6c18 18 42.4 28.8 69.6 28.8s52-11.2 69.6-28.8c18-18 28.8-42.4 28.8-69.6s-11.2-52-28.8-69.6c-17.6-17.6-42.4-28.8-69.6-28.8zM264.8 284c-14 13.6-33.2 22.4-54.4 22.4S170 297.6 156 284c-14-14-22.4-33.2-22.4-54.4 0-21.2 8.8-40.4 22.4-54.4 14-14 33.2-22.4 54.4-22.4s40.4 8.8 54.4 22.4c14 14 22.4 33.2 22.4 54.4.4 21.2-8.4 40.4-22.4 54.4z"></path>
    <circle cx="352.8" cy="150" r="19.6"></circle>
  </symbol>
  <symbol aria-label="posts" role="img" id="posts" viewBox="0 0 48 48">
    <path clip-rule="evenodd" d="M45 1.5H3c-.8 0-1.5.7-1.5 1.5v42c0 .8.7 1.5 1.5 1.5h42c.8 0 1.5-.7 1.5-1.5V3c0-.8-.7-1.5-1.5-1.5zm-40.5 3h11v11h-11v-11zm0 14h11v11h-11v-11zm11 25h-11v-11h11v11zm14 0h-11v-11h11v11zm0-14h-11v-11h11v11zm0-14h-11v-11h11v11zm14 28h-11v-11h11v11zm0-14h-11v-11h11v11zm0-14h-11v-11h11v11z" fill-rule="evenodd"></path>
  </symbol>
</svg>